<?xml version="1.0" encoding="UTF-8" standalone="no"?>
<!DOCTYPE svg PUBLIC "-//W3C//DTD SVG 1.1//EN" "http://www.w3.org/Graphics/SVG/1.1/DTD/svg11.dtd">
<svg version="1.1" xmlns="http://www.w3.org/2000/svg" xmlns:xlink="http://www.w3.org/1999/xlink" preserveAspectRatio="xMidYMid meet" viewBox="0 0 640 640" width="640" height="640"><defs><path d="M318.43 391.75C318.43 419.24 297.3 441.53 271.23 441.53C245.16 441.53 224.04 419.24 224.04 391.75C224.04 364.25 245.16 349.76 271.23 349.76C297.3 349.76 318.43 364.25 318.43 391.75" id="admz6AM7F"></path><path d="M297.52 355.75C303.72 362.58 307.45 371.77 307.45 383.27C307.45 410.76 286.32 433.05 260.25 433.05C252.27 433.05 244.77 430.94 238.18 427.26C246.7 436.08 258.36 441.53 271.23 441.53C297.3 441.53 318.43 419.24 318.43 391.75C318.43 374.52 310.13 362.4 297.52 355.75" id="c1JvsvgMpn"></path><path d="M271.23 356.12C252.24 356.12 230.06 365.45 230.06 391.75C230.06 415.69 248.53 435.17 271.23 435.17C293.93 435.17 312.4 415.69 312.4 391.75C312.4 365.45 290.22 356.12 271.23 356.12M271.23 447.89C241.88 447.89 218 422.71 218 391.75C218 362.83 239.39 343.4 271.23 343.4C303.07 343.4 324.46 362.83 324.46 391.75C324.46 422.71 300.58 447.89 271.23 447.89" id="egFFlgO8M"></path><path d="M271.23 386.18C258.54 386.18 252.93 379.19 252.33 378.39C250.26 375.64 250.71 371.64 253.32 369.46C255.92 367.28 259.72 367.75 261.79 370.5C261.8 370.5 264.49 373.45 271.23 373.45C278.01 373.45 280.69 370.47 280.8 370.34C283 367.82 286.76 367.48 289.23 369.7C291.71 371.92 292.15 375.71 290.13 378.39C289.53 379.19 283.93 386.18 271.23 386.18" id="d1kovZzSZb"></path><path d="M260.73 397.49C248.08 397.49 241.31 387.88 241.02 387.46C239.55 385.33 240 382.35 242.02 380.8C244.04 379.27 246.85 379.72 248.32 381.83C248.55 382.16 253.19 388.42 261.5 387.93C264 387.65 266.1 389.86 266.21 392.49C266.32 395.12 264.38 397.35 261.89 397.46C261.5 397.48 261.11 397.49 260.73 397.49" id="a257MuTVZt"></path><path d="M430.35 391.75C430.35 419.24 409.21 441.53 383.15 441.53C357.08 441.53 335.95 419.24 335.95 391.75C335.95 364.25 357.08 349.76 383.15 349.76C409.21 349.76 430.35 364.25 430.35 391.75" id="g4yIPuFhG"></path><path d="M409.43 355.75C415.64 362.58 419.36 371.77 419.36 383.27C419.36 410.76 398.23 433.05 372.17 433.05C364.19 433.05 356.69 430.94 350.1 427.26C358.62 436.08 370.27 441.53 383.15 441.53C409.21 441.53 430.35 419.24 430.35 391.75C430.35 374.52 422.04 362.4 409.43 355.75" id="c1ub0sTTyR"></path><path d="M383.15 356.12C364.16 356.12 341.98 365.45 341.98 391.75C341.98 415.69 360.45 435.17 383.15 435.17C405.85 435.17 424.31 415.69 424.31 391.75C424.31 365.45 402.14 356.12 383.15 356.12M383.15 447.89C353.8 447.89 329.92 422.71 329.92 391.75C329.92 362.83 351.31 343.4 383.15 343.4C414.98 343.4 436.38 362.83 436.38 391.75C436.38 422.71 412.5 447.89 383.15 447.89" id="cbtHITt3w"></path><path d="M383.15 386.18C370.45 386.18 364.84 379.19 364.25 378.39C362.18 375.64 362.62 371.64 365.24 369.46C367.85 367.28 371.64 367.75 373.71 370.5C373.72 370.5 376.41 373.45 383.15 373.45C389.93 373.45 392.6 370.47 392.71 370.34C394.91 367.82 398.68 367.48 401.15 369.7C403.62 371.92 404.06 375.71 402.05 378.39C401.45 379.19 395.84 386.18 383.15 386.18" id="j3x8yS412M"></path><path d="M372.65 397.49C359.99 397.49 353.22 387.88 352.93 387.46C351.47 385.33 351.91 382.35 353.93 380.8C355.95 379.27 358.76 379.72 360.23 381.83C360.45 382.13 364.96 388.28 373.41 387.93C375.98 387.65 378.02 389.86 378.13 392.49C378.24 395.12 376.3 397.35 373.8 397.46C373.41 397.48 373.03 397.49 372.65 397.49" id="e2XchWbsXk"></path><path d="M271.23 383.49C271.22 383.49 271.22 383.49 271.22 383.49C267.89 383.49 265.19 380.63 265.2 377.12C265.24 359.07 274.29 347.68 283.04 336.67C295.87 320.54 309.13 303.85 301.08 261.63C300.42 258.18 302.54 254.83 305.8 254.14C309.06 253.42 312.25 255.68 312.9 259.12C322.1 307.34 305.57 328.13 292.29 344.84C283.91 355.38 277.29 363.72 277.26 377.14C277.26 380.66 274.55 383.49 271.23 383.49" id="dlqEQLLci"></path><path d="M383.14 386.18C380.41 386.18 377.94 384.2 377.28 381.27C376.98 379.95 346.82 248.86 283 259.55C279.75 260.13 276.62 257.74 276.09 254.26C275.58 250.79 277.83 247.53 281.11 246.99C355.92 234.52 387.7 372.48 389.02 378.36C389.78 381.78 387.77 385.2 384.53 386.01C384.07 386.12 383.6 386.18 383.14 386.18" id="d178mVWDxe"></path><path d="M388.96 233.33C322.45 190.29 311.24 252.96 311.24 252.96C311.24 252.96 348.14 303.48 388.96 233.33" id="a7Az2yvLWG"></path><path d="M388.96 233.33C342.33 245.11 316.42 251.65 311.24 252.96C311.24 252.96 348.14 303.48 388.96 233.33" id="hlGIS3XT5"></path><path d="M317.89 251.28C321.87 255.65 331.99 265.01 344.5 264.15C356.71 263.43 368.79 253.79 380.49 235.47C362.19 224.73 347.28 221.91 336.08 227.09C324.51 232.45 319.57 245.47 317.89 251.28M343.01 276.92C321.39 276.92 307.08 257.68 306.46 256.84C305.41 255.4 305 253.56 305.32 251.78C305.51 250.69 310.28 225.22 331.12 215.49C347.23 207.96 367.74 212.14 392.11 227.91C394.95 229.75 395.83 233.67 394.1 236.66C379.15 262.35 362.65 275.88 345.06 276.86C344.37 276.9 343.69 276.92 343.01 276.92" id="a1GUrsqhi0"></path></defs><g><g><g><use xlink:href="#admz6AM7F" opacity="1" fill="#e34361" fill-opacity="1"></use><g><use xlink:href="#admz6AM7F" opacity="1" fill-opacity="0" stroke="#000000" stroke-width="1" stroke-opacity="0"></use></g></g><g><use xlink:href="#c1JvsvgMpn" opacity="1" fill="#bc395b" fill-opacity="1"></use><g><use xlink:href="#c1JvsvgMpn" opacity="1" fill-opacity="0" stroke="#000000" stroke-width="1" stroke-opacity="0"></use></g></g><g><use xlink:href="#egFFlgO8M" opacity="1" fill="#454849" fill-opacity="1"></use><g><use xlink:href="#egFFlgO8M" opacity="1" fill-opacity="0" stroke="#000000" stroke-width="1" stroke-opacity="0"></use></g></g><g><use xlink:href="#d1kovZzSZb" opacity="1" fill="#454849" fill-opacity="1"></use><g><use xlink:href="#d1kovZzSZb" opacity="1" fill-opacity="0" stroke="#000000" stroke-width="1" stroke-opacity="0"></use></g></g><g><use xlink:href="#a257MuTVZt" opacity="1" fill="#fefefe" fill-opacity="1"></use><g><use xlink:href="#a257MuTVZt" opacity="1" fill-opacity="0" stroke="#000000" stroke-width="1" stroke-opacity="0"></use></g></g><g><use xlink:href="#g4yIPuFhG" opacity="1" fill="#e34361" fill-opacity="1"></use><g><use xlink:href="#g4yIPuFhG" opacity="1" fill-opacity="0" stroke="#000000" stroke-width="1" stroke-opacity="0"></use></g></g><g><use xlink:href="#c1ub0sTTyR" opacity="1" fill="#bc395b" fill-opacity="1"></use><g><use xlink:href="#c1ub0sTTyR" opacity="1" fill-opacity="0" stroke="#000000" stroke-width="1" stroke-opacity="0"></use></g></g><g><use xlink:href="#cbtHITt3w" opacity="1" fill="#454849" fill-opacity="1"></use><g><use xlink:href="#cbtHITt3w" opacity="1" fill-opacity="0" stroke="#000000" stroke-width="1" stroke-opacity="0"></use></g></g><g><use xlink:href="#j3x8yS412M" opacity="1" fill="#454849" fill-opacity="1"></use><g><use xlink:href="#j3x8yS412M" opacity="1" fill-opacity="0" stroke="#000000" stroke-width="1" stroke-opacity="0"></use></g></g><g><use xlink:href="#e2XchWbsXk" opacity="1" fill="#fefefe" fill-opacity="1"></use><g><use xlink:href="#e2XchWbsXk" opacity="1" fill-opacity="0" stroke="#000000" stroke-width="1" stroke-opacity="0"></use></g></g><g><use xlink:href="#dlqEQLLci" opacity="1" fill="#454849" fill-opacity="1"></use><g><use xlink:href="#dlqEQLLci" opacity="1" fill-opacity="0" stroke="#000000" stroke-width="1" stroke-opacity="0"></use></g></g><g><use xlink:href="#d178mVWDxe" opacity="1" fill="#454849" fill-opacity="1"></use><g><use xlink:href="#d178mVWDxe" opacity="1" fill-opacity="0" stroke="#000000" stroke-width="1" stroke-opacity="0"></use></g></g><g><use xlink:href="#a7Az2yvLWG" opacity="1" fill="#3bb777" fill-opacity="1"></use><g><use xlink:href="#a7Az2yvLWG" opacity="1" fill-opacity="0" stroke="#000000" stroke-width="1" stroke-opacity="0"></use></g></g><g><use xlink:href="#hlGIS3XT5" opacity="1" fill="#229857" fill-opacity="1"></use><g><use xlink:href="#hlGIS3XT5" opacity="1" fill-opacity="0" stroke="#000000" stroke-width="1" stroke-opacity="0"></use></g></g><g><use xlink:href="#a1GUrsqhi0" opacity="1" fill="#454849" fill-opacity="1"></use><g><use xlink:href="#a1GUrsqhi0" opacity="1" fill-opacity="0" stroke="#000000" stroke-width="1" stroke-opacity="0"></use></g></g></g></g></svg>